<svg width="24" height="24" viewBox="0 0 24 24" fill="none" xmlns="http://www.w3.org/2000/svg">
<mask id="mask0_1413_940" style="mask-type:alpha" maskUnits="userSpaceOnUse" x="0" y="0" width="24" height="24">
<rect width="24" height="24" fill="#D9D9D9"/>
</mask>
<g mask="url(#mask0_1413_940)">
<path d="M11.5 19.8635V13.2077L6.75375 17.9537C6.66025 18.0474 6.54551 18.0974 6.40951 18.1037C6.27367 18.1102 6.15259 18.0602 6.04626 17.9537C5.93976 17.8474 5.88651 17.7295 5.88651 17.6C5.88651 17.4705 5.93976 17.3526 6.04626 17.2463L11.2923 12L6.04626 6.75375C5.95259 6.66025 5.90259 6.5455 5.89626 6.4095C5.88976 6.27367 5.93976 6.15258 6.04626 6.04625C6.15259 5.93975 6.2705 5.8865 6.4 5.8865C6.52951 5.8865 6.64742 5.93975 6.75375 6.04625L11.5 10.7922V4.1365C11.5 3.88783 11.584 3.69008 11.752 3.54325C11.9198 3.39641 12.1051 3.323 12.3078 3.323C12.4026 3.323 12.4988 3.34158 12.5963 3.37875C12.6936 3.41592 12.7858 3.47817 12.873 3.5655L16.4423 7.1345C16.5294 7.22183 16.5907 7.311 16.626 7.402C16.6612 7.493 16.6788 7.59233 16.6788 7.7C16.6788 7.80767 16.6612 7.907 16.626 7.998C16.5907 8.089 16.5294 8.17817 16.4423 8.2655L12.7078 12L16.4423 15.7345C16.5294 15.8218 16.5907 15.911 16.626 16.002C16.6612 16.093 16.6788 16.1923 16.6788 16.3C16.6788 16.4077 16.6612 16.507 16.626 16.598C16.5907 16.689 16.5294 16.7782 16.4423 16.8655L12.873 20.4345C12.7858 20.5218 12.6936 20.5841 12.5963 20.6213C12.4988 20.6584 12.4026 20.677 12.3078 20.677C12.1051 20.677 11.9198 20.6036 11.752 20.4568C11.584 20.3099 11.5 20.1122 11.5 19.8635ZM12.5 10.7922L15.5923 7.7L12.5 4.61925V10.7922ZM12.5 19.3807L15.5923 16.3L12.5 13.2077V19.3807Z" fill="#2595F1"/>
</g>
</svg>
