<svg width="16" height="16" viewBox="0 0 16 16" fill="none" xmlns="http://www.w3.org/2000/svg">
<mask id="mask0_1291_4982" style="mask-type:alpha" maskUnits="userSpaceOnUse" x="0" y="0" width="16" height="16">
<rect width="16" height="16" fill="#D9D9D9"/>
</mask>
<g mask="url(#mask0_1291_4982)">
<path d="M7.99998 9.99998C8.55553 9.99998 9.02776 9.80553 9.41665 9.41665C9.80553 9.02776 9.99998 8.55553 9.99998 7.99998C9.99998 7.44442 9.80553 6.9722 9.41665 6.58331C9.02776 6.19442 8.55553 5.99998 7.99998 5.99998C7.44442 5.99998 6.9722 6.19442 6.58331 6.58331C6.19442 6.9722 5.99998 7.44442 5.99998 7.99998C5.99998 8.55553 6.19442 9.02776 6.58331 9.41665C6.9722 9.80553 7.44442 9.99998 7.99998 9.99998ZM7.99998 11C7.16753 11 6.45942 10.7081 5.87565 10.1243C5.29187 9.54053 4.99998 8.83242 4.99998 7.99998C4.99998 7.16753 5.29187 6.45942 5.87565 5.87565C6.45942 5.29187 7.16753 4.99998 7.99998 4.99998C8.83242 4.99998 9.54053 5.29187 10.1243 5.87565C10.7081 6.45942 11 7.16753 11 7.99998C11 8.83242 10.7081 9.54053 10.1243 10.1243C9.54053 10.7081 8.83242 11 7.99998 11ZM1.33331 8.49998C1.19165 8.49998 1.07292 8.45203 0.977146 8.35615C0.881257 8.26026 0.833313 8.14148 0.833313 7.99981C0.833313 7.85804 0.881257 7.73931 0.977146 7.64365C1.07292 7.54787 1.19165 7.49998 1.33331 7.49998H2.83331C2.97498 7.49998 3.09376 7.54792 3.18965 7.64381C3.28542 7.7397 3.33331 7.85848 3.33331 8.00015C3.33331 8.14192 3.28542 8.26065 3.18965 8.35631C3.09376 8.45209 2.97498 8.49998 2.83331 8.49998H1.33331ZM13.1666 8.49998C13.025 8.49998 12.9062 8.45203 12.8103 8.35615C12.7145 8.26026 12.6666 8.14148 12.6666 7.99981C12.6666 7.85804 12.7145 7.73931 12.8103 7.64365C12.9062 7.54787 13.025 7.49998 13.1666 7.49998H14.6666C14.8083 7.49998 14.927 7.54792 15.0228 7.64381C15.1187 7.7397 15.1666 7.85848 15.1666 8.00015C15.1666 8.14192 15.1187 8.26065 15.0228 8.35631C14.927 8.45209 14.8083 8.49998 14.6666 8.49998H13.1666ZM7.99981 3.33331C7.85804 3.33331 7.73931 3.28542 7.64365 3.18965C7.54787 3.09376 7.49998 2.97498 7.49998 2.83331V1.33331C7.49998 1.19165 7.54792 1.07292 7.64381 0.977146C7.7397 0.881258 7.85848 0.833313 8.00015 0.833313C8.14192 0.833313 8.26065 0.881258 8.35631 0.977146C8.45209 1.07292 8.49998 1.19165 8.49998 1.33331V2.83331C8.49998 2.97498 8.45203 3.09376 8.35615 3.18965C8.26026 3.28542 8.14148 3.33331 7.99981 3.33331ZM7.99981 15.1666C7.85804 15.1666 7.73931 15.1187 7.64365 15.0228C7.54787 14.927 7.49998 14.8083 7.49998 14.6666V13.1666C7.49998 13.025 7.54792 12.9062 7.64381 12.8103C7.7397 12.7145 7.85848 12.6666 8.00015 12.6666C8.14192 12.6666 8.26065 12.7145 8.35631 12.8103C8.45209 12.9062 8.49998 13.025 8.49998 13.1666V14.6666C8.49998 14.8083 8.45203 14.927 8.35615 15.0228C8.26026 15.1187 8.14148 15.1666 7.99981 15.1666ZM4.00381 4.69365L3.16531 3.87815C3.0662 3.78581 3.01837 3.66981 3.02181 3.53015C3.02526 3.39037 3.07376 3.26876 3.16731 3.16531C3.26942 3.06198 3.38931 3.01031 3.52698 3.01031C3.66454 3.01031 3.78159 3.06198 3.87815 3.16531L4.69998 3.99748C4.79654 4.10081 4.84481 4.21787 4.84481 4.34865C4.84481 4.47942 4.79759 4.59654 4.70315 4.69998C4.6087 4.80342 4.49442 4.85237 4.36031 4.84681C4.22609 4.84126 4.10726 4.7902 4.00381 4.69365ZM12.1218 12.8346L11.3 12.0025C11.2034 11.8991 11.1551 11.7804 11.1551 11.6461C11.1551 11.5119 11.2034 11.3965 11.3 11.3C11.3902 11.1965 11.5029 11.1476 11.6381 11.1531C11.7734 11.1587 11.8927 11.2098 11.9961 11.3063L12.8346 12.1218C12.9338 12.2141 12.9816 12.3301 12.9781 12.4698C12.9747 12.6096 12.9262 12.7312 12.8326 12.8346C12.7305 12.938 12.6106 12.9896 12.473 12.9896C12.3354 12.9896 12.2184 12.938 12.1218 12.8346ZM11.3 4.70315C11.1965 4.6087 11.1476 4.49442 11.1531 4.36031C11.1587 4.22609 11.2098 4.10726 11.3063 4.00381L12.1218 3.16531C12.2141 3.0662 12.3301 3.01837 12.4698 3.02181C12.6096 3.02526 12.7312 3.07376 12.8346 3.16731C12.938 3.26942 12.9896 3.38931 12.9896 3.52698C12.9896 3.66454 12.938 3.78159 12.8346 3.87815L12.0025 4.69998C11.8991 4.79654 11.7821 4.84481 11.6513 4.84481C11.5205 4.84481 11.4034 4.79759 11.3 4.70315ZM3.16531 12.836C3.06198 12.7316 3.01031 12.6106 3.01031 12.473C3.01031 12.3354 3.06198 12.2184 3.16531 12.1218L3.99748 11.3C4.10081 11.2034 4.21959 11.1551 4.35381 11.1551C4.48804 11.1551 4.60342 11.2034 4.69998 11.3C4.79909 11.3902 4.84587 11.5029 4.84031 11.6381C4.83476 11.7734 4.78587 11.8927 4.69365 11.9961L3.87815 12.8346C3.78159 12.938 3.66454 12.988 3.52698 12.9846C3.38931 12.9812 3.26876 12.9316 3.16531 12.836Z" fill="white"/>
</g>
</svg>
