<svg width="24" height="24" viewBox="0 0 24 24" fill="none" xmlns="http://www.w3.org/2000/svg">
<mask id="mask0_1517_2448" style="mask-type:alpha" maskUnits="userSpaceOnUse" x="0" y="0" width="24" height="24">
<rect y="6.10352e-05" width="24" height="24" fill="#D9D9D9"/>
</mask>
<g mask="url(#mask0_1517_2448)">
<path d="M12 15.0001C12.8333 15.0001 13.5417 14.7084 14.125 14.1251C14.7083 13.5417 15 12.8334 15 12.0001C15 11.1667 14.7083 10.4584 14.125 9.87506C13.5417 9.29173 12.8333 9.00006 12 9.00006C11.1667 9.00006 10.4583 9.29173 9.875 9.87506C9.29167 10.4584 9 11.1667 9 12.0001C9 12.8334 9.29167 13.5417 9.875 14.1251C10.4583 14.7084 11.1667 15.0001 12 15.0001ZM12 16.0001C10.8858 16.0001 9.94067 15.6119 9.1645 14.8356C8.38817 14.0594 8 13.1142 8 12.0001C8 10.8859 8.38817 9.94073 9.1645 9.16456C9.94067 8.38823 10.8858 8.00006 12 8.00006C13.1142 8.00006 14.0593 8.38823 14.8355 9.16456C15.6118 9.94073 16 10.8859 16 12.0001C16 13.1142 15.6118 14.0594 14.8355 14.8356C14.0593 15.6119 13.1142 16.0001 12 16.0001ZM2 12.5001C1.85833 12.5001 1.73958 12.4521 1.64375 12.3561C1.54792 12.2601 1.5 12.1411 1.5 11.9993C1.5 11.8575 1.54792 11.7388 1.64375 11.6433C1.73958 11.5478 1.85833 11.5001 2 11.5001H4.5C4.64167 11.5001 4.76042 11.5481 4.85625 11.6441C4.95208 11.7401 5 11.859 5 12.0008C5 12.1426 4.95208 12.2613 4.85625 12.3568C4.76042 12.4523 4.64167 12.5001 4.5 12.5001H2ZM19.5 12.5001C19.3583 12.5001 19.2396 12.4521 19.1438 12.3561C19.0479 12.2601 19 12.1411 19 11.9993C19 11.8575 19.0479 11.7388 19.1438 11.6433C19.2396 11.5478 19.3583 11.5001 19.5 11.5001H22C22.1417 11.5001 22.2604 11.5481 22.3563 11.6441C22.4521 11.7401 22.5 11.859 22.5 12.0008C22.5 12.1426 22.4521 12.2613 22.3563 12.3568C22.2604 12.4523 22.1417 12.5001 22 12.5001H19.5ZM11.9993 5.00006C11.8574 5.00006 11.7388 4.95214 11.6433 4.85631C11.5478 4.76048 11.5 4.64173 11.5 4.50006V2.00006C11.5 1.85839 11.548 1.73964 11.644 1.64381C11.74 1.54798 11.8589 1.50006 12.0008 1.50006C12.1426 1.50006 12.2612 1.54798 12.3567 1.64381C12.4522 1.73964 12.5 1.85839 12.5 2.00006V4.50006C12.5 4.64173 12.452 4.76048 12.356 4.85631C12.26 4.95214 12.1411 5.00006 11.9993 5.00006ZM11.9993 22.5001C11.8574 22.5001 11.7388 22.4521 11.6433 22.3563C11.5478 22.2605 11.5 22.1417 11.5 22.0001V19.5001C11.5 19.3584 11.548 19.2396 11.644 19.1438C11.74 19.048 11.8589 19.0001 12.0008 19.0001C12.1426 19.0001 12.2612 19.048 12.3567 19.1438C12.4522 19.2396 12.5 19.3584 12.5 19.5001V22.0001C12.5 22.1417 12.452 22.2605 12.356 22.3563C12.26 22.4521 12.1411 22.5001 11.9993 22.5001ZM6.3615 7.03081L4.92125 5.63456C4.82375 5.54106 4.776 5.42639 4.778 5.29056C4.77983 5.15456 4.8295 5.03148 4.927 4.92131C5.03333 4.81098 5.15125 4.75581 5.28075 4.75581C5.41025 4.75581 5.52817 4.81098 5.6345 4.92131L7.05 6.34231C7.15633 6.45264 7.2095 6.57064 7.2095 6.69631C7.2095 6.82181 7.1595 6.93973 7.0595 7.05006C6.9595 7.16039 6.84575 7.21139 6.71825 7.20306C6.59075 7.19473 6.47183 7.13731 6.3615 7.03081ZM18.3655 19.0788L16.95 17.6578C16.8437 17.5475 16.7905 17.4286 16.7905 17.3011C16.7905 17.1734 16.8437 17.0564 16.95 16.9501C17.0372 16.8397 17.1462 16.7887 17.277 16.7971C17.4077 16.8054 17.5282 16.8628 17.6385 16.9693L19.0788 18.3656C19.1763 18.4591 19.224 18.5737 19.222 18.7096C19.2202 18.8456 19.1705 18.9686 19.073 19.0788C18.9667 19.1891 18.8488 19.2443 18.7193 19.2443C18.5898 19.2443 18.4718 19.1891 18.3655 19.0788ZM16.95 7.05956C16.8397 6.95956 16.7887 6.84581 16.797 6.71831C16.8053 6.59081 16.8628 6.4719 16.9693 6.36156L18.3655 4.92131C18.459 4.82381 18.5737 4.77606 18.7095 4.77806C18.8455 4.77989 18.9686 4.82956 19.0788 4.92706C19.1891 5.03339 19.2443 5.15131 19.2443 5.28081C19.2443 5.41031 19.1891 5.52823 19.0788 5.63456L17.6578 7.05006C17.5474 7.15639 17.4294 7.20956 17.3038 7.20956C17.1783 7.20956 17.0603 7.15956 16.95 7.05956ZM4.92125 19.0831C4.81092 18.9701 4.75575 18.8488 4.75575 18.7193C4.75575 18.5898 4.81092 18.4719 4.92125 18.3656L6.34225 16.9501C6.45258 16.8437 6.5715 16.7906 6.699 16.7906C6.82667 16.7906 6.94367 16.8437 7.05 16.9501C7.1475 17.0372 7.19208 17.1462 7.18375 17.2771C7.17542 17.4077 7.12442 17.5282 7.03075 17.6386L5.6345 19.0788C5.52817 19.1891 5.41025 19.2433 5.28075 19.2413C5.15125 19.2395 5.03142 19.1867 4.92125 19.0831Z" fill="white"/>
</g>
</svg>
