<?xml version="1.0" encoding="UTF-8" standalone="no"?>
<svg
   width="64"
   height="64"
   version="1"
   id="svg4"
   xmlns="http://www.w3.org/2000/svg"
   xmlns:svg="http://www.w3.org/2000/svg">
  <defs
     id="defs4">
    <filter
       style="color-interpolation-filters:sRGB"
       id="filter10"
       x="0"
       y="0"
       width="1"
       height="1.0257394">
      <feFlood
         result="flood"
         in="SourceGraphic"
         flood-opacity="0.498039"
         flood-color="rgb(0,0,0)"
         id="feFlood9" />
      <feGaussianBlur
         result="blur"
         in="SourceGraphic"
         stdDeviation="0.000000"
         id="feGaussianBlur9" />
      <feOffset
         result="offset"
         in="blur"
         dx="0.000000"
         dy="1.000000"
         id="feOffset9" />
      <feComposite
         result="comp1"
         operator="in"
         in="flood"
         in2="offset"
         id="feComposite9" />
      <feComposite
         result="comp2"
         operator="over"
         in="SourceGraphic"
         in2="comp1"
         id="feComposite10" />
    </filter>
    <filter
       style="color-interpolation-filters:sRGB"
       id="filter13"
       x="0"
       y="0"
       width="1"
       height="1.1031567">
      <feFlood
         result="flood"
         in="SourceGraphic"
         flood-opacity="0.498039"
         flood-color="rgb(0,0,0)"
         id="feFlood12" />
      <feGaussianBlur
         result="blur"
         in="SourceGraphic"
         stdDeviation="0.000000"
         id="feGaussianBlur12" />
      <feOffset
         result="offset"
         in="blur"
         dx="0.000000"
         dy="1.000000"
         id="feOffset12" />
      <feComposite
         result="comp1"
         operator="in"
         in="flood"
         in2="offset"
         id="feComposite12" />
      <feComposite
         result="comp2"
         operator="over"
         in="SourceGraphic"
         in2="comp1"
         id="feComposite13" />
    </filter>
  </defs>
  <rect
     style="opacity:0.2"
     width="56"
     height="56"
     x="4"
     y="5"
     rx="16.799999"
     ry="16.799999"
     id="rect1" />
  <rect
     style="fill:#6300fa;fill-opacity:1"
     width="56"
     height="56"
     x="4"
     y="4"
     rx="16.799999"
     ry="16.799999"
     id="rect2" />
  <path
     style="opacity:0.2;fill:#ffffff"
     d="M 20.800781,4 C 11.493581,4 4,11.493581 4,20.800781 v 1 C 4,12.493581 11.493581,5 20.800781,5 H 43.199219 C 52.506419,5 60,12.493581 60,21.800781 v -1 C 60,11.493581 52.506419,4 43.199219,4 Z"
     id="path4" />
  <path
     style="fill:#ffffff;fill-opacity:1;stroke-width:0.112487;filter:url(#filter10)"
     d="m 22.838551,47.344113 v -0.84644 l 0.172454,-5.83e-4 c 1.432207,-0.0048 3.196104,-0.240428 4.626304,-0.618246 0.255684,-0.06754 0.485124,-0.12687 0.509869,-0.131839 0.02474,-0.0049 0.06523,-0.01714 0.08998,-0.02705 0.02474,-0.0099 0.233938,-0.07931 0.464878,-0.154235 0.982427,-0.318725 2.075531,-0.807997 3.022817,-1.353011 0.14494,-0.08339 0.2867,-0.164911 0.315016,-0.181155 0.494914,-0.283902 1.204175,-0.767489 1.74585,-1.190357 0.353596,-0.27604 0.415023,-0.326465 0.793695,-0.651538 0.535707,-0.459882 1.134177,-1.041527 1.740649,-1.691714 0.46759,-0.501296 1.113772,-1.313249 1.524478,-1.915563 0.0941,-0.137999 0.181679,-0.264199 0.194624,-0.280444 0.02604,-0.03268 0.30802,-0.489837 0.528286,-0.856488 0.419522,-0.698322 1.021403,-2.020943 1.330909,-2.924633 1.001974,-2.925573 1.202214,-6.321849 0.558038,-9.464918 C 40.351043,24.54185 40.311519,24.38086 40.159135,23.845 c -0.04388,-0.154317 -0.09061,-0.320445 -0.103839,-0.369174 -0.03714,-0.136852 -0.298441,-0.908208 -0.330151,-0.974628 -0.01551,-0.03248 -0.07183,-0.172035 -0.125163,-0.310108 -0.05333,-0.138069 -0.11468,-0.277253 -0.136341,-0.309295 -0.02166,-0.03204 -0.03938,-0.07373 -0.03938,-0.09263 0,-0.01891 -0.05915,-0.158823 -0.131455,-0.310921 -0.0723,-0.152099 -0.161757,-0.342996 -0.198789,-0.424214 -0.03704,-0.08122 -0.07573,-0.154316 -0.08599,-0.162439 -0.01027,-0.0081 -0.08571,-0.147669 -0.167676,-0.310108 -0.08196,-0.162436 -0.181224,-0.347119 -0.220584,-0.410409 -0.03936,-0.06329 -0.146164,-0.242706 -0.237334,-0.39871 -0.09117,-0.156002 -0.177485,-0.288071 -0.191806,-0.293486 -0.01433,-0.0054 -0.02604,-0.0241 -0.02604,-0.04151 0,-0.01743 -0.03374,-0.07523 -0.07498,-0.128473 -0.04124,-0.05324 -0.07498,-0.105095 -0.07498,-0.115233 0,-0.0179 -0.108009,-0.173945 -0.425171,-0.614295 -1.272874,-1.767267 -3.217171,-3.609722 -5.003424,-4.741338 -0.156708,-0.09928 -0.300116,-0.193173 -0.318681,-0.20866 -0.110444,-0.09211 -1.354093,-0.770325 -1.413369,-0.770768 -0.02063,-1.2e-4 -0.03749,-0.01358 -0.03749,-0.02981 0,-0.01624 -0.01187,-0.02953 -0.02637,-0.02953 -0.0145,0 -0.171186,-0.0676 -0.348181,-0.150225 C 28.329989,11.663139 26.0201,11.138289 23.355923,11.03895 L 22.838554,11.01966 V 10.179589 9.3395227 l 0.682324,0.016087 c 1.640924,0.03872 3.353861,0.299666 4.941222,0.7527373 0.11547,0.03296 0.277427,0.07958 0.359906,0.103605 0.215509,0.06278 0.853778,0.279374 0.959751,0.325697 0.04948,0.02162 0.197948,0.07995 0.329915,0.129583 0.534728,0.201138 1.288224,0.545113 1.919503,0.876262 0.430214,0.225676 1.445317,0.822747 1.484616,0.873231 0.0082,0.01058 0.04816,0.03649 0.08869,0.05753 0.04053,0.02104 0.171405,0.109422 0.290826,0.19639 0.119424,0.08697 0.224533,0.158126 0.233577,0.158126 0.01488,0 0.423487,0.299092 0.571014,0.41799 0.03331,0.02684 0.209029,0.164542 0.390481,0.30599 0.303119,0.236284 0.44607,0.356821 0.958934,0.808589 0.633658,0.558169 1.714607,1.689193 2.230516,2.333854 0.137616,0.171958 0.27258,0.33949 0.299923,0.372294 0.118607,0.142298 0.424615,0.547528 0.424615,0.562292 0,0.0089 0.07129,0.11184 0.158424,0.228741 0.707656,0.94944 1.641942,2.668539 2.073737,3.815712 0.0428,0.113707 0.09102,0.233316 0.107168,0.265805 0.03266,0.06573 0.250571,0.693668 0.312595,0.900792 0.0219,0.07309 0.07448,0.246792 0.116865,0.38599 0.325919,1.070288 0.542639,2.223386 0.701797,3.734015 0.07483,0.710221 0.07425,2.874047 -8.88e-4,3.603159 -0.07802,0.756307 -0.16511,1.411393 -0.23363,1.757279 -0.155554,0.785214 -0.215415,1.064274 -0.272421,1.269966 -0.03377,0.121826 -0.07347,0.274665 -0.08825,0.339642 -0.03788,0.166556 -0.303359,1.015529 -0.401744,1.284733 -0.541786,1.482457 -1.063061,2.532651 -1.945327,3.919188 -0.874232,1.37391 -2.595637,3.313072 -3.888058,4.379892 -0.08855,0.07309 -0.208981,0.173973 -0.267617,0.224172 -0.119542,0.102344 -0.818407,0.648269 -0.932563,0.728485 -0.04059,0.02853 -0.157036,0.110934 -0.258753,0.183127 -0.333105,0.236417 -0.828404,0.561456 -1.179706,0.774178 -0.297932,0.180402 -0.425068,0.252764 -0.764803,0.435302 -0.03299,0.01772 -0.06673,0.03887 -0.07498,0.047 -0.10492,0.10332 -1.686216,0.820395 -2.279409,1.033656 -0.189703,0.0682 -0.385402,0.14078 -0.434891,0.161288 -0.04948,0.02052 -0.211443,0.07398 -0.359905,0.118832 -0.148463,0.04485 -0.31246,0.09985 -0.36444,0.122236 -0.05198,0.02238 -0.111448,0.04069 -0.132155,0.04069 -0.02072,0 -0.221113,0.05164 -0.445349,0.11476 -0.224238,0.06312 -0.441446,0.121298 -0.482686,0.129292 -0.04124,0.0079 -0.257185,0.05523 -0.479878,0.104967 -1.111431,0.248241 -2.396417,0.401838 -3.666548,0.438266 l -0.682338,0.01956 z M 13.810889,30.549264 v -5.404738 h -1.454625 -1.454622 v -1.786897 -1.786898 l 5.211151,0.0075 5.21115,0.0075 0.0077,1.779428 0.0077,1.779432 H 19.884488 18.42963 v 5.404738 5.404738 h -2.309404 -2.309401 z m 9.027662,-1.786813 V 21.5709 h 2.294407 2.294405 v 7.191551 7.191551 h -2.294405 -2.294407 z m 7.588036,0 V 21.5709 h 2.294404 2.294408 v 7.191551 7.191551 h -2.294408 -2.294404 z"
     id="path1" />
  <path
     style="font-weight:bold;font-size:13.3333px;-inkscape-font-specification:'sans-serif Bold';white-space:pre;fill:#ffffff;stroke:#ffffff;stroke-width:0;stroke-linecap:round;stroke-linejoin:round;filter:url(#filter13)"
     d="M 45.34938,54.004228 H 42.764751 L 42.09418,52.044597 h -3.593741 l -0.670572,1.959631 h -2.519525 l 3.580721,-9.693986 h 2.877596 z m -3.860668,-3.73697 -1.191403,-3.476554 -1.191403,3.476554 z m 10.494766,3.73697 h -5.677069 v -1.718746 h 1.588538 v -6.256495 h -1.588538 v -1.718745 h 5.677069 v 1.718745 H 50.39494 v 6.256495 h 1.588538 z"
     id="text4"
     aria-label="AI" />
</svg>
