<svg width="24" height="24" viewBox="0 0 24 24" fill="none" xmlns="http://www.w3.org/2000/svg">
<mask id="mask0_1517_1628" style="mask-type:alpha" maskUnits="userSpaceOnUse" x="0" y="0" width="24" height="24">
<rect y="6.10352e-05" width="24" height="24" fill="#D9D9D9"/>
</mask>
<g mask="url(#mask0_1517_1628)">
<path d="M12.0033 21C10.7587 21 9.58867 20.7638 8.493 20.2915C7.3975 19.8192 6.4445 19.1782 5.634 18.3685C4.8235 17.5588 4.18192 16.6067 3.70925 15.512C3.23642 14.4175 3 13.2479 3 12.0033C3 10.7587 3.23617 9.58867 3.7085 8.493C4.18083 7.3975 4.82183 6.4445 5.6315 5.634C6.44117 4.8235 7.39333 4.18192 8.488 3.70925C9.5825 3.23642 10.7521 3 11.9967 3C13.2413 3 14.4113 3.23617 15.507 3.7085C16.6025 4.18083 17.5555 4.82183 18.366 5.6315C19.1765 6.44117 19.8181 7.39333 20.2908 8.488C20.7636 9.5825 21 10.7521 21 11.9967C21 13.2413 20.7638 14.4113 20.2915 15.507C19.8192 16.6025 19.1782 17.5555 18.3685 18.366C17.5588 19.1765 16.6067 19.8181 15.512 20.2908C14.4175 20.7636 13.2479 21 12.0033 21ZM12 20C14.2333 20 16.125 19.225 17.675 17.675C19.225 16.125 20 14.2333 20 12C20 9.76667 19.225 7.875 17.675 6.325C16.125 4.775 14.2333 4 12 4C9.76667 4 7.875 4.775 6.325 6.325C4.775 7.875 4 9.76667 4 12C4 14.2333 4.775 16.125 6.325 17.675C7.875 19.225 9.76667 20 12 20ZM11.9955 17C13.3832 17 14.5642 16.5139 15.5385 15.5418C16.5128 14.5694 17 13.3888 17 12C17 11.435 16.9122 10.8983 16.7365 10.3898C16.5608 9.88125 16.3122 9.41925 15.9905 9.00375C15.8802 8.84992 15.758 8.765 15.624 8.749C15.49 8.733 15.3641 8.75958 15.2462 8.82875C15.1282 8.89808 15.0522 8.99683 15.0182 9.125C14.9842 9.25317 15.0141 9.37817 15.1077 9.5C15.3923 9.84233 15.6121 10.228 15.7673 10.657C15.9224 11.086 16 11.5337 16 12C16 13.1 15.6083 14.0417 14.825 14.825C14.0417 15.6083 13.1 16 12 16C10.9 16 9.95833 15.6083 9.175 14.825C8.39167 14.0417 8 13.1 8 12C8 11.5192 8.07758 11.0624 8.23275 10.6298C8.38792 10.1971 8.61225 9.80958 8.90575 9.46725C8.99558 9.34542 9.02442 9.22458 8.99225 9.10475C8.96025 8.98492 8.88717 8.89042 8.773 8.82125C8.659 8.75192 8.53117 8.72558 8.3895 8.74225C8.24783 8.75892 8.12117 8.84608 8.0095 9.00375C7.684 9.41542 7.43433 9.87508 7.2605 10.3828C7.08683 10.8904 7 11.4295 7 12C7 13.3888 7.48567 14.5694 8.457 15.5418C9.42833 16.5139 10.6078 17 11.9955 17ZM11.9993 7C11.8574 7 11.7388 7.04792 11.6433 7.14375C11.5478 7.23958 11.5 7.35833 11.5 7.5V11.5C11.5 11.6417 11.548 11.7604 11.644 11.8562C11.74 11.9521 11.8589 12 12.0008 12C12.1426 12 12.2612 11.9521 12.3567 11.8562C12.4522 11.7604 12.5 11.6417 12.5 11.5V7.5C12.5 7.35833 12.452 7.23958 12.356 7.14375C12.26 7.04792 12.1411 7 11.9993 7Z" fill="white"/>
</g>
</svg>
