<svg width="24" height="24" viewBox="0 0 24 24" fill="none" xmlns="http://www.w3.org/2000/svg">
<mask id="mask0_1291_4952" style="mask-type:alpha" maskUnits="userSpaceOnUse" x="0" y="0" width="24" height="24">
<rect width="24" height="24" fill="#D9D9D9"/>
</mask>
<g mask="url(#mask0_1291_4952)">
<path d="M10.4213 19.7962C8.83275 19.4411 7.53208 18.6362 6.51925 17.3817C5.50642 16.1272 5 14.6666 5 13C5 12.1525 5.15517 11.3381 5.4655 10.5567C5.77567 9.77522 6.20317 9.05822 6.748 8.40572C6.84167 8.29556 6.95133 8.23947 7.077 8.23747C7.20267 8.23547 7.3225 8.29156 7.4365 8.40572C7.53017 8.49939 7.57792 8.61222 7.57975 8.74422C7.58175 8.87622 7.53592 9.00122 7.44225 9.11922C6.96542 9.64872 6.60583 10.2475 6.3635 10.9155C6.12117 11.5833 6 12.2781 6 13C6 14.4013 6.43433 15.644 7.303 16.728C8.1715 17.8118 9.27567 18.5134 10.6155 18.8327C10.7295 18.8609 10.8221 18.9218 10.8933 19.0155C10.9644 19.109 11 19.2128 11 19.327C11 19.4936 10.9442 19.6247 10.8327 19.7202C10.7213 19.8157 10.5841 19.8411 10.4213 19.7962ZM13.5788 19.8345C13.4159 19.8795 13.2788 19.8532 13.1673 19.7557C13.0558 19.6582 13 19.5261 13 19.3595C13 19.2493 13.0356 19.1474 13.1068 19.0537C13.1779 18.9602 13.2705 18.893 13.3845 18.852C14.7115 18.4648 15.8125 17.7398 16.6875 16.677C17.5625 15.6141 18 14.3885 18 13C18 11.3333 17.4167 9.91664 16.25 8.74997C15.0833 7.58331 13.6667 6.99997 12 6.99997H11.3672L12.6135 8.24622C12.7198 8.35256 12.773 8.47047 12.773 8.59997C12.773 8.72947 12.7198 8.84739 12.6135 8.95372C12.507 9.06023 12.389 9.11347 12.2595 9.11347C12.1302 9.11347 12.0123 9.06023 11.9058 8.95372L10.0173 7.06547C9.93008 6.97814 9.86892 6.88897 9.83375 6.79797C9.79842 6.70697 9.78075 6.60764 9.78075 6.49997C9.78075 6.39231 9.79842 6.29297 9.83375 6.20197C9.86892 6.11097 9.93008 6.02181 10.0173 5.93447L11.9058 4.04622C12.0123 3.93972 12.1302 3.88647 12.2595 3.88647C12.389 3.88647 12.507 3.93972 12.6135 4.04622C12.7198 4.15256 12.773 4.27047 12.773 4.39997C12.773 4.52947 12.7198 4.64739 12.6135 4.75372L11.3672 5.99997H12C13.9513 5.99997 15.6058 6.67881 16.9635 8.03647C18.3212 9.39414 19 11.0486 19 13C19 14.65 18.4904 16.1 17.4712 17.35C16.4519 18.6 15.1544 19.4281 13.5788 19.8345Z" fill="white"/>
</g>
</svg>
