<svg width="24" height="24" viewBox="0 0 24 24" fill="none" xmlns="http://www.w3.org/2000/svg">
<path fill-rule="evenodd" clip-rule="evenodd" d="M11.7135 20.8172C11.8135 20.8339 11.909 20.8422 12 20.8422C12.091 20.8422 12.1865 20.8339 12.2865 20.8172C12.3865 20.8006 12.4802 20.7756 12.5677 20.7422C14.5354 19.9922 16.0993 18.7202 17.2595 16.926C18.4198 15.1317 19 13.1897 19 11.1V6.81724C19 6.47424 18.9024 6.16549 18.7072 5.89099C18.5121 5.61665 18.2597 5.41774 17.95 5.29424L12.5655 3.29424C12.3705 3.22374 12.182 3.18849 12 3.18849C11.818 3.18849 11.6295 3.22374 11.4345 3.29424L6.05 5.29424C5.74033 5.41774 5.48792 5.61665 5.29275 5.89099C5.09758 6.16549 5 6.47424 5 6.81724V11.1C5 13.1897 5.58017 15.1317 6.7405 16.926C7.90067 18.7202 9.46458 19.9922 11.4323 20.7422C11.5198 20.7756 11.6135 20.8006 11.7135 20.8172ZM16.3 16.6C15.1667 18.25 13.7333 19.35 12 19.9C10.2667 19.35 8.83333 18.25 7.7 16.6C6.56667 14.95 6 13.1167 6 11.1V6.79799C6 6.66982 6.03525 6.55449 6.10575 6.45199C6.17625 6.34932 6.27558 6.2724 6.40375 6.22124L11.7885 4.22124C11.8525 4.19557 11.923 4.18274 12 4.18274C12.077 4.18274 12.1475 4.19557 12.2115 4.22124L17.5962 6.22124C17.7244 6.2724 17.8238 6.34932 17.8943 6.45199C17.9648 6.55449 18 6.66982 18 6.79799V11.1C18 13.1167 17.4333 14.95 16.3 16.6ZM15.3405 9.14051L11.0942 13.4058L8.848 11.1405C8.7545 11.0468 8.63617 11 8.493 11C8.34967 11 8.23167 11.0468 8.139 11.1405C8.04633 11.234 8 11.3522 8 11.495C8 11.638 8.04683 11.7557 8.1405 11.848L10.5287 14.2173C10.6904 14.3789 10.8789 14.4598 11.0942 14.4598C11.3096 14.4598 11.4981 14.3789 11.6597 14.2173L16.048 9.84801C16.1417 9.75451 16.1885 9.63618 16.1885 9.49301C16.1885 9.34968 16.1417 9.23168 16.048 9.13901C15.9545 9.04634 15.8363 9.00001 15.6935 9.00001C15.5505 9.00001 15.4328 9.04684 15.3405 9.14051Z" fill="#5AC379"/>
</svg>
