<svg width="24" height="24" viewBox="0 0 24 24" fill="none" xmlns="http://www.w3.org/2000/svg">
<mask id="mask0_1291_4947" style="mask-type:alpha" maskUnits="userSpaceOnUse" x="0" y="0" width="24" height="24">
<rect width="24" height="24" fill="#D9D9D9"/>
</mask>
<g mask="url(#mask0_1291_4947)">
<path d="M11.4655 14.5H12.5345C12.6557 14.5 12.7617 14.4495 12.8525 14.3485C12.9432 14.2475 12.9718 14.1365 12.9385 14.0155L12.4635 11.4095C12.7583 11.307 13.0016 11.1254 13.1932 10.8647C13.3849 10.6039 13.4808 10.3156 13.4808 9.99998C13.4808 9.59281 13.3356 9.24423 13.0452 8.95423C12.7549 8.66423 12.4059 8.51923 11.9983 8.51923C11.5904 8.51923 11.242 8.66423 10.953 8.95423C10.6638 9.24423 10.5192 9.59281 10.5192 9.99998C10.5192 10.3156 10.6151 10.6039 10.8067 10.8647C10.9984 11.1254 11.2417 11.307 11.5365 11.4095L11.0615 14.0155C11.0282 14.1365 11.0568 14.2475 11.1475 14.3485C11.2383 14.4495 11.3443 14.5 11.4655 14.5ZM12 20.8422C11.909 20.8422 11.8135 20.8339 11.7135 20.8172C11.6135 20.8006 11.5198 20.7756 11.4323 20.7422C9.46458 19.9922 7.90067 18.7201 6.7405 16.926C5.58017 15.1316 5 13.1896 5 11.1V6.81723C5 6.47423 5.09758 6.16548 5.29275 5.89098C5.48792 5.61664 5.74033 5.41773 6.05 5.29423L11.4345 3.29423C11.6295 3.22373 11.818 3.18848 12 3.18848C12.182 3.18848 12.3705 3.22373 12.5655 3.29423L17.95 5.29423C18.2597 5.41773 18.5121 5.61664 18.7072 5.89098C18.9024 6.16548 19 6.47423 19 6.81723V11.1C19 13.1896 18.4198 15.1316 17.2595 16.926C16.0993 18.7201 14.5354 19.9922 12.5677 20.7422C12.4802 20.7756 12.3865 20.8006 12.2865 20.8172C12.1865 20.8339 12.091 20.8422 12 20.8422ZM12 19.9C13.7333 19.35 15.1667 18.25 16.3 16.6C17.4333 14.95 18 13.1166 18 11.1V6.79798C18 6.66981 17.9648 6.55448 17.8943 6.45198C17.8238 6.34931 17.7244 6.27239 17.5962 6.22123L12.2115 4.22123C12.1475 4.19556 12.077 4.18273 12 4.18273C11.923 4.18273 11.8525 4.19556 11.7885 4.22123L6.40375 6.22123C6.27558 6.27239 6.17625 6.34931 6.10575 6.45198C6.03525 6.55448 6 6.66981 6 6.79798V11.1C6 13.1166 6.56667 14.95 7.7 16.6C8.83333 18.25 10.2667 19.35 12 19.9Z" fill="#5AC379"/>
</g>
</svg>
