<svg width="24" height="24" viewBox="0 0 24 24" fill="none" xmlns="http://www.w3.org/2000/svg">
<mask id="mask0_1517_3206" style="mask-type:alpha" maskUnits="userSpaceOnUse" x="0" y="0" width="24" height="24">
<rect y="6.10352e-05" width="24" height="24" fill="#D9D9D9"/>
</mask>
<g mask="url(#mask0_1517_3206)">
<path d="M12.1 21.5001C10.7705 21.5001 9.52375 21.2478 8.35975 20.7433C7.19558 20.2388 6.18017 19.5532 5.3135 18.6866C4.44683 17.8199 3.76125 16.8045 3.25675 15.6403C2.75225 14.4763 2.5 13.2296 2.5 11.9001C2.5 9.97823 3.01992 8.22281 4.05975 6.63381C5.09942 5.04465 6.50575 3.88406 8.27875 3.15206C8.59425 3.01873 8.89267 3.04215 9.174 3.22231C9.45533 3.40231 9.59733 3.6584 9.6 3.99056C9.6205 5.38156 9.892 6.70748 10.4145 7.96831C10.9368 9.22931 11.6884 10.3501 12.6692 11.3308C13.6499 12.3116 14.7675 13.0616 16.022 13.5808C17.2765 14.1001 18.5992 14.3701 19.9902 14.3906C20.3596 14.3931 20.6308 14.5341 20.8038 14.8136C20.9769 15.0931 20.9968 15.3956 20.8635 15.7213C20.1108 17.4841 18.9425 18.888 17.3585 19.9328C15.7747 20.9776 14.0218 21.5001 12.1 21.5001ZM12.1 20.0001C13.5667 20.0001 14.925 19.6334 16.175 18.9001C17.425 18.1667 18.4083 17.1584 19.125 15.8751C17.6917 15.7417 16.3333 15.3776 15.05 14.7828C13.7667 14.188 12.6167 13.3822 11.6 12.3656C10.5833 11.3489 9.775 10.2005 9.175 8.92031C8.575 7.64015 8.21667 6.2834 8.1 4.85006C6.81667 5.56673 5.8125 6.55423 5.0875 7.81256C4.3625 9.0709 4 10.4334 4 11.9001C4 14.1501 4.7875 16.0626 6.3625 17.6376C7.9375 19.2126 9.85 20.0001 12.1 20.0001Z" fill="white"/>
</g>
</svg>
