<svg width="24" height="24" viewBox="0 0 24 24" fill="none" xmlns="http://www.w3.org/2000/svg">
<mask id="mask0_1517_2397" style="mask-type:alpha" maskUnits="userSpaceOnUse" x="0" y="0" width="24" height="24">
<rect y="6.10352e-05" width="24" height="24" fill="#D9D9D9"/>
</mask>
<g mask="url(#mask0_1517_2397)">
<path d="M16.1405 18.6713C15.9955 18.7623 15.8442 18.8514 15.6865 18.9386C15.5289 19.0257 15.3693 19.1046 15.2078 19.1751C15.0859 19.2276 14.9535 19.2276 14.8105 19.1751C14.6677 19.1226 14.5719 19.0335 14.523 18.9078C14.4744 18.786 14.4837 18.6619 14.551 18.5356C14.6184 18.4094 14.7129 18.32 14.8345 18.2673C14.9897 18.2045 15.1334 18.1343 15.2655 18.0568C15.3975 17.9793 15.5264 17.888 15.652 17.7828L11.577 14.1078V16.3251C11.577 16.5571 11.469 16.7157 11.253 16.8011C11.0369 16.8862 10.8474 16.8475 10.6845 16.6848L8.00003 14.0001H5.38453C5.15253 14.0001 4.95994 13.9235 4.80678 13.7703C4.65361 13.6171 4.57703 13.4245 4.57703 13.1923V10.8078C4.57703 10.5756 4.65361 10.383 4.80678 10.2298C4.95994 10.0766 5.15253 10.0001 5.38453 10.0001H7.46928L2.94628 5.47706C2.85261 5.38339 2.80261 5.26864 2.79628 5.13281C2.78978 4.99681 2.83978 4.87564 2.94628 4.76931C3.05261 4.66281 3.17053 4.60956 3.30003 4.60956C3.42953 4.60956 3.54744 4.66281 3.65378 4.76931L19.5 20.6156C19.5937 20.7091 19.6437 20.8237 19.65 20.9596C19.6564 21.0956 19.6064 21.2167 19.5 21.3231C19.3937 21.4296 19.2758 21.4828 19.1463 21.4828C19.0168 21.4828 18.8988 21.4296 18.7923 21.3231L16.1405 18.6713ZM18.9615 11.9751C18.9615 10.6174 18.5917 9.37089 17.852 8.23556C17.1122 7.10039 16.1192 6.25589 14.873 5.70206C14.7385 5.63656 14.6385 5.54389 14.573 5.42406C14.5077 5.30423 14.5039 5.18339 14.5615 5.06156C14.623 4.92306 14.7285 4.83398 14.878 4.79431C15.0274 4.75448 15.1776 4.76731 15.3288 4.83281C16.7276 5.48531 17.8494 6.44872 18.6943 7.72306C19.5391 8.99739 19.9615 10.4147 19.9615 11.9751C19.9615 12.7046 19.8634 13.4042 19.6673 14.0741C19.4711 14.7439 19.1853 15.3737 18.8098 15.9636C18.7148 16.1379 18.6003 16.2421 18.4663 16.2761C18.3324 16.3101 18.2065 16.3046 18.0885 16.2596C17.9705 16.2147 17.8856 16.1353 17.8338 16.0213C17.7818 15.9071 17.7904 15.7853 17.8595 15.6558C18.2224 15.1071 18.4968 14.5286 18.6828 13.9203C18.8686 13.312 18.9615 12.6636 18.9615 11.9751ZM14.948 9.11731C15.3314 9.48014 15.6154 9.92181 15.8 10.4423C15.9847 10.9628 16.077 11.4821 16.077 12.0001C16.077 12.2116 16.0609 12.4199 16.0288 12.6251C15.9968 12.8302 15.9468 13.0321 15.8788 13.2308C15.8199 13.3961 15.7065 13.4961 15.5385 13.5308C15.3705 13.5655 15.2224 13.5187 15.0943 13.3906L14.5885 12.8846C14.5014 12.7974 14.4392 12.7074 14.402 12.6146C14.3649 12.5216 14.3463 12.4212 14.3463 12.3136V9.40781C14.3463 9.25898 14.4177 9.15156 14.5605 9.08556C14.7035 9.01956 14.8327 9.03014 14.948 9.11731ZM10.1345 8.43081C10.0474 8.34364 10.007 8.24622 10.0135 8.13856C10.0199 8.03089 10.0666 7.93347 10.1538 7.84631L10.6845 7.31531C10.8474 7.15264 11.0369 7.11389 11.253 7.19906C11.469 7.28439 11.577 7.44306 11.577 7.67506V8.88456C11.577 9.06673 11.493 9.19622 11.325 9.27306C11.157 9.35006 11.0089 9.31806 10.8808 9.17706L10.1345 8.43081ZM10.577 15.1501V13.1078L8.46928 11.0001H5.57703V13.0001H8.42703L10.577 15.1501Z" fill="white"/>
</g>
</svg>
