<svg width="16" height="16" viewBox="0 0 16 16" fill="none" xmlns="http://www.w3.org/2000/svg">
<mask id="mask0_1291_4971" style="mask-type:alpha" maskUnits="userSpaceOnUse" x="0" y="0" width="16" height="16">
<rect width="16" height="16" fill="#D9D9D9"/>
</mask>
<g mask="url(#mask0_1291_4971)">
<path d="M12.5644 7.98335C12.5644 7.06668 12.3188 6.23012 11.8276 5.47368C11.3363 4.71712 10.6777 4.15112 9.85155 3.77568C9.72333 3.71501 9.62889 3.6244 9.56822 3.50385C9.50755 3.3834 9.50011 3.26051 9.54589 3.13518C9.60089 3.00151 9.69633 2.90863 9.83222 2.85651C9.96811 2.80429 10.1057 2.80857 10.2451 2.86935C11.2502 3.32568 12.0547 4.01235 12.6586 4.92935C13.2623 5.84624 13.5642 6.86418 13.5642 7.98318C13.5642 9.10207 13.2623 10.1201 12.6586 11.0372C12.0547 11.9543 11.2502 12.641 10.2451 13.0973C10.1057 13.1581 9.96811 13.1624 9.83222 13.1102C9.69633 13.0581 9.60089 12.9652 9.54589 12.8315C9.50011 12.7062 9.50755 12.5833 9.56822 12.4628C9.62889 12.3423 9.72333 12.2517 9.85155 12.191C10.6777 11.8156 11.3363 11.2496 11.8276 10.493C12.3188 9.73657 12.5644 8.90001 12.5644 7.98335ZM4.91055 9.66668H3.03872C2.86794 9.66668 2.72483 9.6089 2.60938 9.49335C2.49394 9.3779 2.43622 9.23479 2.43622 9.06401V6.93601C2.43622 6.76524 2.49394 6.62213 2.60938 6.50668C2.72483 6.39113 2.86794 6.33335 3.03872 6.33335H4.91055L6.90539 4.33851C7.06516 4.17874 7.24911 4.14268 7.45722 4.23035C7.66533 4.31801 7.76938 4.47457 7.76938 4.70001V11.3C7.76938 11.5255 7.66533 11.682 7.45722 11.7697C7.24911 11.8573 7.06516 11.8213 6.90539 11.6615L4.91055 9.66668ZM10.7694 8.00068C10.7694 8.41657 10.6831 8.81018 10.5104 9.18151C10.3378 9.55285 10.1052 9.86501 9.81239 10.118C9.71794 10.1812 9.61877 10.1876 9.51488 10.1372C9.41111 10.0867 9.35922 10.0034 9.35922 9.88718V6.07951C9.35922 5.96329 9.41111 5.87996 9.51488 5.82951C9.61877 5.77907 9.71794 5.78512 9.81239 5.84768C10.1052 6.10824 10.3378 6.42824 10.5104 6.80768C10.6831 7.18724 10.7694 7.5849 10.7694 8.00068ZM6.76938 5.90001L5.33605 7.33335H3.43605V8.66668H5.33605L6.76938 10.1V5.90001Z" fill="white"/>
</g>
</svg>
