<svg width="24" height="24" viewBox="0 0 24 24" fill="none" xmlns="http://www.w3.org/2000/svg">
<mask id="mask0_1517_3085" style="mask-type:alpha" maskUnits="userSpaceOnUse" x="0" y="0" width="24" height="24">
<rect y="6.10352e-05" width="24" height="24" fill="#D9D9D9"/>
</mask>
<g mask="url(#mask0_1517_3085)">
<path d="M12 17.6667C11.6753 17.6667 11.401 17.5602 11.1769 17.3471C10.9528 17.1339 10.8407 16.8729 10.8407 16.5642C10.8407 16.2556 10.9528 15.9947 11.1769 15.7815C11.401 15.5684 11.6753 15.4618 12 15.4618C12.3246 15.4618 12.599 15.5684 12.8231 15.7815C13.0472 15.9947 13.1593 16.2556 13.1593 16.5642C13.1593 16.8729 13.0472 17.1339 12.8231 17.3471C12.599 17.5602 12.3246 17.6667 12 17.6667Z" fill="white"/>
<path d="M12 11.2998C12.8839 11.2998 13.7159 11.4432 14.4961 11.7298C15.2763 12.0165 15.9779 12.4152 16.601 12.926C16.7265 13.0224 16.7925 13.1435 16.7988 13.2892C16.805 13.4348 16.7531 13.56 16.643 13.6647C16.5357 13.7667 16.4048 13.8161 16.2504 13.8129C16.0958 13.8096 15.9557 13.7612 15.8301 13.6674C15.3141 13.2558 14.7287 12.9329 14.0738 12.6987C13.4187 12.4644 12.7274 12.3472 12 12.3472C11.2726 12.3472 10.5813 12.4644 9.92624 12.6987C9.27129 12.9329 8.68584 13.2558 8.16992 13.6674C8.04433 13.7612 7.90423 13.8089 7.74963 13.8107C7.59515 13.8126 7.46429 13.7626 7.35703 13.6606C7.24978 13.5558 7.19854 13.4307 7.20331 13.2851C7.20821 13.1394 7.27345 13.0183 7.39904 12.9219C8.0221 12.4111 8.72371 12.013 9.50388 11.7277C10.284 11.4424 11.1161 11.2998 12 11.2998Z" fill="white"/>
<path d="M12 7.00006C13.5312 7.00006 14.9569 7.25178 16.2771 7.75521C17.5972 8.25876 18.7712 8.95843 19.7992 9.85422C19.9248 9.9561 19.9915 10.0829 19.9993 10.2346C20.0069 10.3861 19.9557 10.5143 19.8455 10.619C19.7286 10.7302 19.5905 10.7773 19.4311 10.7602C19.2717 10.7433 19.1244 10.6805 18.9891 10.5721C18.0559 9.77557 16.9934 9.15568 15.8018 8.71245C14.6101 8.26909 13.3428 8.04741 12 8.04741C10.6572 8.04741 9.38991 8.26909 8.19818 8.71245C7.00657 9.15568 5.94414 9.77557 5.01087 10.5721C4.87561 10.6805 4.72829 10.7433 4.56892 10.7602C4.40955 10.7773 4.2714 10.7302 4.15447 10.619C4.04433 10.5143 3.99309 10.3861 4.00075 10.2346C4.00853 10.0829 4.07522 9.9561 4.20081 9.85422C5.22877 8.95843 6.4028 8.25876 7.72288 7.75521C9.04309 7.25178 10.4688 7.00006 12 7.00006Z" fill="white"/>
</g>
</svg>
