<svg width="24" height="24" viewBox="0 0 24 24" fill="none" xmlns="http://www.w3.org/2000/svg">
<mask id="mask0_1291_4957" style="mask-type:alpha" maskUnits="userSpaceOnUse" x="0" y="0" width="24" height="24">
<rect width="24" height="24" fill="#D9D9D9"/>
</mask>
<g mask="url(#mask0_1291_4957)">
<path d="M12 20.423C11.5691 20.423 11.2051 20.2743 10.9077 19.977C10.6102 19.6795 10.4615 19.3153 10.4615 18.8845C10.4615 18.4538 10.6102 18.0898 10.9077 17.7923C11.2051 17.4949 11.5691 17.3463 12 17.3463C12.4308 17.3463 12.7949 17.4949 13.0922 17.7923C13.3897 18.0898 13.5385 18.4538 13.5385 18.8845C13.5385 19.3153 13.3897 19.6795 13.0922 19.977C12.7949 20.2743 12.4308 20.423 12 20.423ZM12 11.5385C13.173 11.5385 14.2771 11.7385 15.3125 12.1385C16.3478 12.5385 17.2789 13.0949 18.1057 13.8078C18.2724 13.9423 18.3599 14.1112 18.3682 14.3145C18.3766 14.5177 18.3076 14.6923 18.1615 14.8385C18.0191 14.9808 17.8455 15.0498 17.6405 15.0453C17.4353 15.0408 17.2494 14.9731 17.0827 14.8423C16.3981 14.2679 15.6211 13.8173 14.752 13.4905C13.8826 13.1635 12.9653 13 12 13C11.0346 13 10.1173 13.1635 9.24798 13.4905C8.37881 13.8173 7.60189 14.2679 6.91723 14.8423C6.75056 14.9731 6.56464 15.0398 6.35948 15.0423C6.15448 15.0449 5.98081 14.9751 5.83848 14.8328C5.69614 14.6866 5.62814 14.5119 5.63448 14.3088C5.64098 14.1054 5.72756 13.9365 5.89423 13.802C6.72106 13.0892 7.65214 12.5337 8.68748 12.1355C9.72281 11.7375 10.827 11.5385 12 11.5385ZM12 5.53851C14.032 5.53851 15.924 5.88976 17.676 6.59226C19.4278 7.29493 20.9858 8.27126 22.35 9.52126C22.5166 9.66343 22.6051 9.84035 22.6155 10.052C22.6256 10.2635 22.5576 10.4423 22.4115 10.5885C22.2563 10.7437 22.073 10.8093 21.8615 10.7855C21.65 10.7618 21.4545 10.6743 21.275 10.523C20.0365 9.41151 18.6266 8.54651 17.0452 7.92801C15.4637 7.30935 13.782 7.00001 12 7.00001C10.218 7.00001 8.53623 7.30935 6.95473 7.92801C5.37339 8.54651 3.96348 9.41151 2.72498 10.523C2.54548 10.6743 2.34998 10.7618 2.13848 10.7855C1.92698 10.8093 1.74364 10.7437 1.58848 10.5885C1.44231 10.4423 1.37431 10.2635 1.38448 10.052C1.39481 9.84035 1.48331 9.66343 1.64998 9.52126C3.01414 8.27126 4.57214 7.29493 6.32398 6.59226C8.07598 5.88976 9.96798 5.53851 12 5.53851Z" fill="#5AC379"/>
</g>
</svg>
