<svg width="24" height="24" viewBox="0 0 24 24" fill="none" xmlns="http://www.w3.org/2000/svg">
<path d="M12 17.6666C11.6753 17.6666 11.401 17.56 11.1769 17.3469C10.9528 17.1337 10.8407 16.8728 10.8407 16.564C10.8407 16.2554 10.9528 15.9945 11.1769 15.7813C11.401 15.5682 11.6753 15.4617 12 15.4617C12.3246 15.4617 12.599 15.5682 12.8231 15.7813C13.0472 15.9945 13.1593 16.2554 13.1593 16.564C13.1593 16.8728 13.0472 17.1337 12.8231 17.3469C12.599 17.56 12.3246 17.6666 12 17.6666Z" fill="#5AC379"/>
<path d="M12 11.2998C12.8839 11.2998 13.7159 11.4431 14.4961 11.7298C15.2763 12.0164 15.9779 12.4152 16.601 12.926C16.7265 13.0224 16.7925 13.1435 16.7988 13.2892C16.805 13.4348 16.7531 13.5599 16.643 13.6647C16.5357 13.7667 16.4048 13.8161 16.2504 13.8128C16.0958 13.8096 15.9557 13.7611 15.8301 13.6674C15.3141 13.2558 14.7287 12.9329 14.0738 12.6987C13.4187 12.4643 12.7274 12.3472 12 12.3472C11.2726 12.3472 10.5813 12.4643 9.92624 12.6987C9.27129 12.9329 8.68584 13.2558 8.16992 13.6674C8.04433 13.7611 7.90423 13.8089 7.74963 13.8107C7.59515 13.8126 7.46429 13.7626 7.35703 13.6606C7.24978 13.5558 7.19854 13.4306 7.20331 13.285C7.20821 13.1393 7.27345 13.0183 7.39904 12.9219C8.0221 12.4111 8.72371 12.013 9.50388 11.7276C10.284 11.4424 11.1161 11.2998 12 11.2998Z" fill="#8F8F8F"/>
<path d="M12 7C13.5312 7 14.9569 7.25172 16.2771 7.75515C17.5972 8.2587 18.7712 8.95837 19.7992 9.85415C19.9248 9.95604 19.9915 10.0828 19.9993 10.2345C20.0069 10.3861 19.9557 10.5142 19.8455 10.619C19.7286 10.7302 19.5905 10.7772 19.4311 10.7602C19.2717 10.7432 19.1244 10.6805 18.9891 10.572C18.0559 9.7755 16.9934 9.15562 15.8018 8.71239C14.6101 8.26903 13.3428 8.04735 12 8.04735C10.6572 8.04735 9.38991 8.26903 8.19818 8.71239C7.00657 9.15562 5.94414 9.7755 5.01087 10.572C4.87561 10.6805 4.72829 10.7432 4.56892 10.7602C4.40955 10.7772 4.2714 10.7302 4.15447 10.619C4.04433 10.5142 3.99309 10.3861 4.00075 10.2345C4.00853 10.0828 4.07522 9.95604 4.20081 9.85415C5.22877 8.95837 6.4028 8.2587 7.72288 7.75515C9.04309 7.25172 10.4688 7 12 7Z" fill="#8F8F8F"/>
</svg>
