<svg width="24" height="24" viewBox="0 0 24 24" fill="none" xmlns="http://www.w3.org/2000/svg">
<mask id="mask0_1411_343" style="mask-type:alpha" maskUnits="userSpaceOnUse" x="0" y="0" width="24" height="24">
<rect width="24" height="24" fill="#D9D9D9"/>
</mask>
<g mask="url(#mask0_1411_343)">
<path d="M16.577 18.8462H15.7192C15.5706 18.8462 15.4568 18.7812 15.378 18.651C15.299 18.5208 15.2987 18.3853 15.377 18.2445L17.0527 15.223C17.1086 15.1385 17.1842 15.1065 17.2797 15.127C17.3752 15.1475 17.423 15.2132 17.423 15.324V17.1538H18.2807C18.4294 17.1538 18.5432 17.2188 18.622 17.349C18.701 17.4792 18.7013 17.6147 18.623 17.7555L16.9472 20.777C16.8914 20.8615 16.8157 20.8935 16.7202 20.873C16.6247 20.8525 16.577 20.7868 16.577 20.676V18.8462ZM8.69225 21C8.46342 21 8.27158 20.9226 8.11675 20.7678C7.96192 20.6129 7.8845 20.4211 7.8845 20.1923V5.2885C7.8845 5.05967 7.96192 4.86783 8.11675 4.713C8.27158 4.55817 8.46342 4.48075 8.69225 4.48075H10.3077V3.80775C10.3077 3.57892 10.3852 3.38708 10.54 3.23225C10.6947 3.07742 10.8865 3 11.1155 3H12.8845C13.1135 3 13.3053 3.07742 13.46 3.23225C13.6148 3.38708 13.6922 3.57892 13.6922 3.80775V4.48075H15.3117C15.5411 4.48075 15.7323 4.55817 15.8855 4.713C16.0388 4.86783 16.1155 5.05967 16.1155 5.2885V11.5577C16.1155 11.6994 16.0675 11.8182 15.9715 11.914C15.8755 12.0098 15.7566 12.0577 15.6147 12.0577C15.4729 12.0577 15.3542 12.0098 15.2587 11.914C15.1632 11.8182 15.1155 11.6994 15.1155 11.5577V5.4615H8.8845V20H11.4672C11.6089 20 11.7277 20.048 11.8235 20.144C11.9193 20.24 11.9672 20.3589 11.9672 20.5008C11.9672 20.6426 11.9193 20.7612 11.8235 20.8568C11.7277 20.9523 11.6089 21 11.4672 21H8.69225Z" fill="#5AC379"/>
</g>
</svg>
