<svg width="24" height="24" viewBox="0 0 24 24" fill="none" xmlns="http://www.w3.org/2000/svg">
<mask id="mask0_1411_341" style="mask-type:alpha" maskUnits="userSpaceOnUse" x="0" y="0" width="24" height="24">
<rect width="24" height="24" fill="#D9D9D9"/>
</mask>
<g mask="url(#mask0_1411_341)">
<path d="M8.6955 21C8.46133 21 8.26766 20.9226 8.1145 20.7678C7.96116 20.6129 7.8845 20.4211 7.8845 20.1923V5.2885C7.8845 5.05967 7.96192 4.86783 8.11675 4.713C8.27158 4.55817 8.46342 4.48075 8.69225 4.48075H10.3077V3.80775C10.3077 3.57892 10.3852 3.38708 10.54 3.23225C10.6947 3.07742 10.8865 3 11.1155 3H12.8845C13.1135 3 13.3053 3.07742 13.46 3.23225C13.6148 3.38708 13.6922 3.57892 13.6922 3.80775V4.48075H15.3117C15.5411 4.48075 15.7323 4.55817 15.8855 4.713C16.0388 4.86783 16.1155 5.05967 16.1155 5.2885V20.1923C16.1155 20.4211 16.0381 20.6129 15.8832 20.7678C15.7284 20.9226 15.5366 21 15.3077 21H8.6955ZM8.8845 20H15.1155V5.4615H8.8845V20Z" fill="#FABC3C"/>
<rect x="11" y="10" width="2" height="8" fill="#FABC3C"/>
</g>
</svg>
