<svg width="24" height="24" viewBox="0 0 24 24" fill="none" xmlns="http://www.w3.org/2000/svg">
<mask id="mask0_1517_2483" style="mask-type:alpha" maskUnits="userSpaceOnUse" x="0" y="0" width="24" height="24">
<rect y="6.10352e-05" width="24" height="24" fill="#D9D9D9"/>
</mask>
<g mask="url(#mask0_1517_2483)">
<path d="M12 15.0001C12.8333 15.0001 13.5417 14.7084 14.125 14.1251C14.7083 13.5417 15 12.8334 15 12.0001C15 11.1667 14.7083 10.4584 14.125 9.87506C13.5417 9.29173 12.8333 9.00006 12 9.00006C11.1667 9.00006 10.4583 9.29173 9.875 9.87506C9.29167 10.4584 9 11.1667 9 12.0001C9 12.8334 9.29167 13.5417 9.875 14.1251C10.4583 14.7084 11.1667 15.0001 12 15.0001ZM12 16.0001C10.8858 16.0001 9.94067 15.6119 9.1645 14.8356C8.38817 14.0594 8 13.1142 8 12.0001C8 10.8859 8.38817 9.94073 9.1645 9.16456C9.94067 8.38823 10.8858 8.00006 12 8.00006C13.1142 8.00006 14.0593 8.38823 14.8355 9.16456C15.6118 9.94073 16 10.8859 16 12.0001C16 13.1142 15.6118 14.0594 14.8355 14.8356C14.0593 15.6119 13.1142 16.0001 12 16.0001ZM11.9993 5.00006C11.8574 5.00006 11.7388 4.95214 11.6433 4.85631C11.5478 4.76048 11.5 4.64173 11.5 4.50006V2.00006C11.5 1.85839 11.548 1.73964 11.644 1.64381C11.74 1.54798 11.8589 1.50006 12.0008 1.50006C12.1426 1.50006 12.2612 1.54798 12.3567 1.64381C12.4522 1.73964 12.5 1.85839 12.5 2.00006V4.50006C12.5 4.64173 12.452 4.76048 12.356 4.85631C12.26 4.95214 12.1411 5.00006 11.9993 5.00006ZM16.95 7.05956C16.8397 6.95956 16.7887 6.84581 16.797 6.71831C16.8053 6.59081 16.8628 6.4719 16.9693 6.36156L18.3655 4.92131C18.459 4.82381 18.5737 4.77606 18.7095 4.77806C18.8455 4.77989 18.9686 4.82956 19.0788 4.92706C19.1891 5.03339 19.2443 5.15131 19.2443 5.28081C19.2443 5.41031 19.1891 5.52823 19.0788 5.63456L17.6578 7.05006C17.5474 7.15639 17.4294 7.20956 17.3038 7.20956C17.1783 7.20956 17.0603 7.15956 16.95 7.05956Z" fill="white"/>
</g>
</svg>
