<svg width="24" height="24" viewBox="0 0 24 24" fill="none" xmlns="http://www.w3.org/2000/svg">
<mask id="mask0_1517_2487" style="mask-type:alpha" maskUnits="userSpaceOnUse" x="0" y="0" width="24" height="24">
<rect y="6.10352e-05" width="24" height="24" fill="#D9D9D9"/>
</mask>
<g mask="url(#mask0_1517_2487)">
<path d="M12 15.0001C12.8333 15.0001 13.5417 14.7084 14.125 14.1251C14.7083 13.5417 15 12.8334 15 12.0001C15 11.1667 14.7083 10.4584 14.125 9.87506C13.5417 9.29173 12.8333 9.00006 12 9.00006C11.1667 9.00006 10.4583 9.29173 9.87499 9.87506C9.29165 10.4584 8.99999 11.1667 8.99999 12.0001C8.99999 12.8334 9.29165 13.5417 9.87499 14.1251C10.4583 14.7084 11.1667 15.0001 12 15.0001ZM12 16.0001C10.8858 16.0001 9.94065 15.6119 9.16449 14.8356C8.38815 14.0594 7.99999 13.1142 7.99999 12.0001C7.99999 10.8859 8.38815 9.94073 9.16449 9.16456C9.94065 8.38823 10.8858 8.00006 12 8.00006C13.1142 8.00006 14.0593 8.38823 14.8355 9.16456C15.6118 9.94073 16 10.8859 16 12.0001C16 13.1142 15.6118 14.0594 14.8355 14.8356C14.0593 15.6119 13.1142 16.0001 12 16.0001ZM19.5 12.5001C19.3583 12.5001 19.2396 12.4521 19.1437 12.3561C19.0479 12.2601 19 12.1411 19 11.9993C19 11.8575 19.0479 11.7388 19.1437 11.6433C19.2396 11.5478 19.3583 11.5001 19.5 11.5001H22C22.1417 11.5001 22.2604 11.5481 22.3562 11.6441C22.4521 11.7401 22.5 11.859 22.5 12.0008C22.5 12.1426 22.4521 12.2613 22.3562 12.3568C22.2604 12.4523 22.1417 12.5001 22 12.5001H19.5ZM11.9992 5.00006C11.8574 5.00006 11.7387 4.95214 11.6432 4.85631C11.5477 4.76048 11.5 4.64173 11.5 4.50006V2.00006C11.5 1.85839 11.548 1.73964 11.644 1.64381C11.74 1.54798 11.8589 1.50006 12.0007 1.50006C12.1426 1.50006 12.2612 1.54798 12.3567 1.64381C12.4522 1.73964 12.5 1.85839 12.5 2.00006V4.50006C12.5 4.64173 12.452 4.76048 12.356 4.85631C12.26 4.95214 12.1411 5.00006 11.9992 5.00006ZM11.9992 22.5001C11.8574 22.5001 11.7387 22.4521 11.6432 22.3563C11.5477 22.2605 11.5 22.1417 11.5 22.0001V19.5001C11.5 19.3584 11.548 19.2396 11.644 19.1438C11.74 19.048 11.8589 19.0001 12.0007 19.0001C12.1426 19.0001 12.2612 19.048 12.3567 19.1438C12.4522 19.2396 12.5 19.3584 12.5 19.5001V22.0001C12.5 22.1417 12.452 22.2605 12.356 22.3563C12.26 22.4521 12.1411 22.5001 11.9992 22.5001ZM18.3655 19.0788L16.95 17.6578C16.8437 17.5475 16.7905 17.4286 16.7905 17.3011C16.7905 17.1734 16.8437 17.0564 16.95 16.9501C17.0372 16.8397 17.1462 16.7887 17.277 16.7971C17.4077 16.8054 17.5282 16.8628 17.6385 16.9693L19.0787 18.3656C19.1762 18.4591 19.224 18.5737 19.222 18.7096C19.2202 18.8456 19.1705 18.9686 19.073 19.0788C18.9667 19.1891 18.8487 19.2443 18.7192 19.2443C18.5897 19.2443 18.4718 19.1891 18.3655 19.0788ZM16.95 7.05956C16.8397 6.95956 16.7887 6.84581 16.797 6.71831C16.8053 6.59081 16.8627 6.4719 16.9692 6.36156L18.3655 4.92131C18.459 4.82381 18.5737 4.77606 18.7095 4.77806C18.8455 4.77989 18.9686 4.82956 19.0787 4.92706C19.1891 5.03339 19.2442 5.15131 19.2442 5.28081C19.2442 5.41031 19.1891 5.52823 19.0787 5.63456L17.6577 7.05006C17.5474 7.15639 17.4294 7.20956 17.3037 7.20956C17.1782 7.20956 17.0603 7.15956 16.95 7.05956ZM4.92124 19.0831C4.8109 18.9701 4.75574 18.8488 4.75574 18.7193C4.75574 18.5898 4.8109 18.4719 4.92124 18.3656L6.34224 16.9501C6.45257 16.8437 6.57149 16.7906 6.69899 16.7906C6.82665 16.7906 6.94365 16.8437 7.04999 16.9501C7.14749 17.0372 7.19207 17.1462 7.18374 17.2771C7.1754 17.4077 7.1244 17.5282 7.03074 17.6386L5.63449 19.0788C5.52815 19.1891 5.41024 19.2433 5.28074 19.2413C5.15124 19.2395 5.0314 19.1867 4.92124 19.0831Z" fill="white"/>
</g>
</svg>
