<svg width="24" height="24" viewBox="0 0 24 24" fill="none" xmlns="http://www.w3.org/2000/svg">
<path d="M12 20C10.8991 20 9.86208 19.7895 8.88889 19.3684C7.91571 18.9473 7.06815 18.3757 6.34622 17.6538C5.6243 16.9319 5.05274 16.0843 4.63156 15.1111C4.21052 14.1379 4 13.1009 4 12C4 10.8957 4.21052 9.85778 4.63156 8.88622C5.05274 7.91481 5.6243 7.06815 6.34622 6.34622C7.06815 5.6243 7.9157 5.05274 8.88889 4.63155C9.86207 4.21052 10.8991 4 12 4C13.1043 4 14.1422 4.21052 15.1138 4.63155C16.0852 5.05274 16.9319 5.62429 17.6538 6.34622C18.3757 7.06815 18.9473 7.91481 19.3684 8.88622C19.7895 9.85778 20 10.8957 20 12C20 13.1009 19.7895 14.1379 19.3684 15.1111C18.9473 16.0843 18.3757 16.9318 17.6538 17.6538C16.9319 18.3757 16.0852 18.9473 15.1138 19.3684C14.1422 19.7895 13.1043 20 12 20ZM12 19.118C12.5219 18.4479 12.9522 17.7898 13.2907 17.1436C13.629 16.4975 13.9042 15.7744 14.1162 14.9744L9.88378 14.9744C10.1186 15.8199 10.3995 16.5658 10.7264 17.212C11.0536 17.8581 11.4781 18.4934 12 19.118ZM10.8684 18.9847C10.4536 18.4958 10.075 17.8915 9.73245 17.1718C9.39008 16.4521 9.13511 15.7196 8.96756 14.9744L5.55889 14.9744C6.06837 16.0798 6.79059 16.9863 7.72556 17.694C8.66067 18.4017 9.7083 18.8319 10.8684 18.9847ZM13.1316 18.9847C14.2917 18.8319 15.3393 18.4017 16.2744 17.694C17.2094 16.9863 17.9316 16.0798 18.4411 14.9744L15.0324 14.9744C14.808 15.731 14.5245 16.4692 14.182 17.1889C13.8396 17.9086 13.4895 18.5072 13.1316 18.9847ZM5.19667 14.0856L8.78289 14.0856C8.71563 13.7208 8.66808 13.3655 8.64022 13.0196C8.61222 12.6738 8.59822 12.3339 8.59822 12C8.59822 11.6661 8.61222 11.3262 8.64022 10.9804C8.66808 10.6345 8.71563 10.2792 8.78289 9.91444L5.19667 9.91445C5.09978 10.2221 5.02422 10.5575 4.97 10.9204C4.91593 11.2834 4.88889 11.6433 4.88889 12C4.88889 12.3567 4.91593 12.7166 4.97 13.0796C5.02422 13.4425 5.09978 13.7779 5.19667 14.0856ZM9.67178 14.0856L14.3282 14.0856C14.3955 13.7208 14.443 13.3712 14.4709 13.0367C14.4989 12.7023 14.5129 12.3567 14.5129 12C14.5129 11.6433 14.4989 11.2977 14.4709 10.9633C14.443 10.6288 14.3955 10.2792 14.3282 9.91444L9.67178 9.91444C9.60452 10.2792 9.55696 10.6288 9.52911 10.9633C9.50111 11.2977 9.48711 11.6433 9.48711 12C9.48711 12.3567 9.50111 12.7023 9.52911 13.0367C9.55697 13.3712 9.60452 13.7208 9.67178 14.0856ZM15.2171 14.0856L18.8033 14.0856C18.9002 13.7778 18.9758 13.4425 19.03 13.0796C19.0841 12.7166 19.1111 12.3567 19.1111 12C19.1111 11.6433 19.0841 11.2834 19.03 10.9204C18.9758 10.5575 18.9002 10.2221 18.8033 9.91444L15.2171 9.91444C15.2844 10.2792 15.3319 10.6345 15.3598 10.9804C15.3878 11.3262 15.4018 11.6661 15.4018 12C15.4018 12.3339 15.3878 12.6738 15.3598 13.0196C15.3319 13.3655 15.2844 13.7208 15.2171 14.0856ZM15.0324 9.02555L18.4411 9.02555C17.9202 7.89741 17.2065 6.99089 16.3 6.306C15.3935 5.62111 14.3373 5.18518 13.1316 4.99822C13.5464 5.54415 13.9193 6.16837 14.2504 6.87089C14.5816 7.57355 14.8422 8.29178 15.0324 9.02555ZM9.88378 9.02556L14.1162 9.02555C13.8814 8.19148 13.5919 7.43711 13.2478 6.76244C12.9036 6.08778 12.4877 5.46096 12 4.882C11.5123 5.46096 11.0964 6.08778 10.7522 6.76244C10.4081 7.43711 10.1186 8.19148 9.88378 9.02556ZM5.55889 9.02556L8.96756 9.02556C9.15778 8.29178 9.41845 7.57355 9.74956 6.87089C10.0807 6.16837 10.4536 5.54415 10.8684 4.99822C9.65126 5.18518 8.5923 5.62393 7.69156 6.31444C6.79067 7.00511 6.07978 7.90882 5.55889 9.02556Z" fill="#2595F1"/>
</svg>
