<svg width="24" height="24" viewBox="0 0 24 24" fill="none" xmlns="http://www.w3.org/2000/svg">
<path fill-rule="evenodd" clip-rule="evenodd" d="M12 20.6538C11.909 20.6538 11.8135 20.6454 11.7135 20.6288C11.6135 20.6121 11.5198 20.5871 11.4323 20.5538C9.46458 19.8038 7.90067 18.5317 6.7405 16.7375C5.58017 14.9432 5 13.0012 5 10.9115V6.62876C5 6.28576 5.09758 5.97701 5.29275 5.70251C5.48792 5.42818 5.74033 5.22926 6.05 5.10576L11.4345 3.10576C11.6295 3.03526 11.818 3.00001 12 3.00001C12.182 3.00001 12.3705 3.03526 12.5655 3.10576L17.95 5.10576C18.2597 5.22926 18.5121 5.42818 18.7072 5.70251C18.9024 5.97701 19 6.28576 19 6.62876V10.9115C19 13.0012 18.4198 14.9432 17.2595 16.7375C16.0993 18.5317 14.5354 19.8038 12.5677 20.5538C12.4802 20.5871 12.3865 20.6121 12.2865 20.6288C12.1865 20.6454 12.091 20.6538 12 20.6538ZM12 19.7115C13.7333 19.1615 15.1667 18.0615 16.3 16.4115C17.4333 14.7615 18 12.9282 18 10.9115V6.60951C18 6.48134 17.9648 6.36601 17.8943 6.26351C17.8238 6.16084 17.7244 6.08393 17.5962 6.03276L12.2115 4.03276C12.1475 4.00709 12.077 3.99426 12 3.99426C11.923 3.99426 11.8525 4.00709 11.7885 4.03276L6.40375 6.03276C6.27558 6.08393 6.17625 6.16084 6.10575 6.26351C6.03525 6.36601 6 6.48134 6 6.60951V10.9115C6 12.9282 6.56667 14.7615 7.7 16.4115C8.83333 18.0615 10.2667 19.1615 12 19.7115ZM11.5 7.50001C11.5 7.22387 11.7239 7.00001 12 7.00001C12.2761 7.00001 12.5 7.22387 12.5 7.50001V14.5C12.5 14.7762 12.2761 15 12 15C11.7239 15 11.5 14.7762 11.5 14.5V7.50001ZM12 16C11.7239 16 11.5 16.2239 11.5 16.5C11.5 16.7762 11.7239 17 12 17C12.2761 17 12.5 16.7762 12.5 16.5C12.5 16.2239 12.2761 16 12 16Z" fill="#FABC3C"/>
</svg>
