<svg width="24" height="24" viewBox="0 0 24 24" fill="none" xmlns="http://www.w3.org/2000/svg">
<path fill-rule="evenodd" clip-rule="evenodd" d="M11.7135 20.6288C11.8135 20.6454 11.909 20.6538 12 20.6538C12.091 20.6538 12.1865 20.6454 12.2865 20.6288C12.3865 20.6121 12.4802 20.5871 12.5677 20.5538C14.5354 19.8038 16.0993 18.5317 17.2595 16.7375C18.4198 14.9432 19 13.0012 19 10.9115V6.62876C19 6.28576 18.9024 5.97701 18.7072 5.70251C18.5121 5.42818 18.2597 5.22926 17.95 5.10576L12.5655 3.10576C12.3705 3.03526 12.182 3.00001 12 3.00001C11.818 3.00001 11.6295 3.03526 11.4345 3.10576L6.05 5.10576C5.74033 5.22926 5.48792 5.42818 5.29275 5.70251C5.09758 5.97701 5 6.28576 5 6.62876V10.9115C5 13.0012 5.58017 14.9432 6.7405 16.7375C7.90067 18.5317 9.46458 19.8038 11.4323 20.5538C11.5198 20.5871 11.6135 20.6121 11.7135 20.6288ZM16.3 16.4115C15.1667 18.0615 13.7333 19.1615 12 19.7115C10.2667 19.1615 8.83333 18.0615 7.7 16.4115C6.56667 14.7615 6 12.9282 6 10.9115V6.60951C6 6.48134 6.03525 6.36601 6.10575 6.26351C6.17625 6.16084 6.27558 6.08393 6.40375 6.03276L11.7885 4.03276C11.8525 4.00709 11.923 3.99426 12 3.99426C12.077 3.99426 12.1475 4.00709 12.2115 4.03276L17.5962 6.03276C17.7244 6.08393 17.8238 6.16084 17.8943 6.26351C17.9648 6.36601 18 6.48134 18 6.60951V10.9115C18 12.9282 17.4333 14.7615 16.3 16.4115ZM8.85355 9.02495C8.65829 8.82969 8.65829 8.5131 8.85355 8.31784C9.04881 8.12258 9.36539 8.12258 9.56065 8.31784L12.0178 10.775L14.4749 8.31792C14.6701 8.12266 14.9867 8.12266 15.182 8.31792C15.3772 8.51318 15.3772 8.82976 15.182 9.02503L12.7249 11.4821L15.2175 13.9747C15.4128 14.17 15.4128 14.4865 15.2175 14.6818C15.0222 14.8771 14.7057 14.8771 14.5104 14.6818L12.0178 12.1892L9.52512 14.6819C9.32986 14.8771 9.01328 14.8771 8.81802 14.6819C8.62275 14.4866 8.62275 14.17 8.81802 13.9748L11.3107 11.4821L8.85355 9.02495Z" fill="#F15025"/>
</svg>
