<svg width="24" height="24" viewBox="0 0 24 24" fill="none" xmlns="http://www.w3.org/2000/svg">
<mask id="mask0_1517_2383" style="mask-type:alpha" maskUnits="userSpaceOnUse" x="0" y="0" width="24" height="24">
<rect y="6.10352e-05" width="24" height="24" fill="#D9D9D9"/>
</mask>
<g mask="url(#mask0_1517_2383)">
<path d="M11.423 14.0001H8.80775C8.57892 14.0001 8.38708 13.9226 8.23225 13.7678C8.07742 13.613 8 13.4211 8 13.1923V10.8078C8 10.579 8.07742 10.3871 8.23225 10.2323C8.38708 10.0775 8.57892 10.0001 8.80775 10.0001H11.423L14.1077 7.31531C14.2706 7.15264 14.46 7.11531 14.676 7.20331C14.892 7.29131 15 7.44856 15 7.67506V16.3251C15 16.5516 14.892 16.7088 14.676 16.7968C14.46 16.8848 14.2706 16.8475 14.1077 16.6848L11.423 14.0001ZM9 13.0001H11.85L14 15.1501V8.85006L11.85 11.0001H9V13.0001Z" fill="white"/>
</g>
</svg>
