<svg width="24" height="24" viewBox="0 0 24 24" fill="none" xmlns="http://www.w3.org/2000/svg">
<mask id="mask0_1517_2404" style="mask-type:alpha" maskUnits="userSpaceOnUse" x="0" y="0" width="24" height="24">
<rect y="6.10352e-05" width="24" height="24" fill="#D9D9D9"/>
</mask>
<g mask="url(#mask0_1517_2404)">
<path d="M18.6922 11.9751C18.6922 10.6086 18.3221 9.36139 17.5817 8.23356C16.8416 7.10573 15.8489 6.26189 14.6037 5.70206C14.4692 5.63656 14.3692 5.54389 14.3037 5.42406C14.2384 5.30423 14.2328 5.18131 14.287 5.05531C14.352 4.92098 14.4592 4.83398 14.6087 4.79431C14.7581 4.75448 14.9083 4.76731 15.0595 4.83281C16.4583 5.48531 17.5802 6.44948 18.425 7.72531C19.2698 9.00114 19.6922 10.4175 19.6922 11.9743C19.6922 13.5311 19.2698 14.9477 18.425 16.2241C17.5802 17.5004 16.4583 18.4648 15.0595 19.1173C14.9083 19.1828 14.7581 19.1956 14.6087 19.1558C14.4592 19.1161 14.352 19.0291 14.287 18.8948C14.2328 18.7688 14.2384 18.6459 14.3037 18.5261C14.3692 18.4062 14.4692 18.3136 14.6037 18.2481C15.8489 17.6882 16.8416 16.8444 17.5817 15.7166C18.3221 14.5887 18.6922 13.3416 18.6922 11.9751ZM7.73075 14.0001H5.1155C4.8865 14.0001 4.69466 13.9226 4.54 13.7678C4.38516 13.613 4.30775 13.4211 4.30775 13.1923V10.8078C4.30775 10.579 4.38516 10.3871 4.54 10.2323C4.69466 10.0775 4.8865 10.0001 5.1155 10.0001H7.73075L10.4155 7.31531C10.5782 7.15264 10.7676 7.11531 10.9837 7.20331C11.1997 7.29131 11.3077 7.44856 11.3077 7.67506V16.3251C11.3077 16.5516 11.1997 16.7088 10.9837 16.7968C10.7676 16.8848 10.5782 16.8475 10.4155 16.6848L7.73075 14.0001ZM15.8077 12.0023C15.8077 12.5498 15.7071 13.0681 15.5057 13.5571C15.3044 14.0461 15.023 14.47 14.6615 14.8288C14.5448 14.9186 14.4182 14.9337 14.2817 14.8741C14.1452 14.8144 14.077 14.7102 14.077 14.5616V9.38856C14.077 9.23989 14.1452 9.13572 14.2817 9.07606C14.4182 9.01639 14.5448 9.03039 14.6615 9.11806C15.023 9.48306 15.3044 9.91806 15.5057 10.4231C15.7071 10.9282 15.8077 11.4546 15.8077 12.0023ZM10.3077 8.85006L8.15775 11.0001H5.30775V13.0001H8.15775L10.3077 15.1501V8.85006Z" fill="white"/>
</g>
</svg>
