<svg width="24" height="24" viewBox="0 0 24 24" fill="none" xmlns="http://www.w3.org/2000/svg">
<mask id="mask0_1517_2390" style="mask-type:alpha" maskUnits="userSpaceOnUse" x="0" y="0" width="24" height="24">
<rect y="6.10352e-05" width="24" height="24" fill="#D9D9D9"/>
</mask>
<g mask="url(#mask0_1517_2390)">
<path d="M9.423 14.0001H6.80775C6.57558 14.0001 6.38292 13.9235 6.22975 13.7703C6.07658 13.6171 6 13.4245 6 13.1923V10.8078C6 10.5756 6.07658 10.383 6.22975 10.2298C6.38292 10.0766 6.57558 10.0001 6.80775 10.0001H9.423L12.1077 7.31531C12.2706 7.15264 12.46 7.11389 12.676 7.19906C12.892 7.28439 13 7.44306 13 7.67506V16.3251C13 16.5571 12.892 16.7157 12.676 16.8011C12.46 16.8862 12.2706 16.8475 12.1077 16.6848L9.423 14.0001ZM17.5 12.0001C17.5 12.5462 17.3993 13.0645 17.198 13.5548C16.9968 14.0453 16.7148 14.4713 16.352 14.8328C16.2365 14.92 16.1105 14.9337 15.974 14.8741C15.8375 14.8144 15.7693 14.7102 15.7693 14.5616V9.38856C15.7693 9.23989 15.8375 9.13573 15.974 9.07606C16.1105 9.01639 16.2365 9.03014 16.352 9.11731C16.7148 9.48281 16.9968 9.91806 17.198 10.4231C17.3993 10.9282 17.5 11.4539 17.5 12.0001ZM12 8.85006L9.85 11.0001H7V13.0001H9.85L12 15.1501V8.85006Z" fill="white"/>
</g>
</svg>
